M48
; DRILL file {KiCad (5.1.4)-1} date 2019/11/5 14:40:29
; FORMAT={-:-/ absolute / inch / decimal}
; #@! TF.CreationDate,2019-11-05T14:40:29+08:00
; #@! TF.GenerationSoftware,Kicad,Pcbnew,(5.1.4)-1
; #@! TF.FileFunction,Plated,1,2,PTH
FMAT,2
INCH
T1C0.0138
T2C0.0157
T3C0.0197
T4C0.0236
T5C0.0315
T6C0.0394
T7C0.0512
T8C0.1008
%
G90
G05
T1
X6.426Y-3.5433
X6.4465Y-3.4937
X6.4465Y-3.5929
X6.4961Y-3.4732
X6.4961Y-3.6134
X6.5457Y-3.4937
X6.5457Y-3.5929
X6.5661Y-3.5433
X1.3079Y-4.3307
X1.3283Y-4.2811
X1.3283Y-4.3803
X1.378Y-4.2606
X1.378Y-4.4008
X1.4276Y-4.2811
X1.4276Y-4.3803
X1.448Y-4.3307
X1.3079Y-3.5433
X1.3283Y-3.4937
X1.3283Y-3.5929
X1.378Y-3.4732
X1.378Y-3.6134
X1.4276Y-3.4937
X1.4276Y-3.5929
X1.448Y-3.5433
X6.426Y-4.3307
X6.4465Y-4.2811
X6.4465Y-4.3803
X6.4961Y-4.2606
X6.4961Y-4.4008
X6.5457Y-4.2811
X6.5457Y-4.3803
X6.5661Y-4.3307
T2
X1.6933Y-3.9126
X1.7063Y-3.9831
X1.8701Y-3.7709
X1.9043Y-3.9531
X1.924Y-3.7705
X3.3732Y-3.5323
X4.3496Y-4.0157
X4.4173Y-3.4906
X4.4193Y-3.9799
X4.4764Y-4.252
X4.4835Y-3.7795
X4.4835Y-3.8583
X4.5984Y-4.0142
X4.6654Y-4.0142
X4.8039Y-3.5591
X5.0646Y-3.9118
X5.113Y-3.9366
X5.6421Y-4.1496
T3
X3.3059Y-4.3307
X3.3669Y-4.3303
X3.5224Y-4.0945
X3.5224Y-4.252
X4.8531Y-3.9276
X5.0575Y-3.7598
T4
X1.5276Y-3.7894
X1.5276Y-4.0846
T5
X2.1898Y-3.6307
X2.2787Y-3.8012
X2.5965Y-3.737
X2.6606Y-3.4791
X2.9843Y-4.1921
X3.1606Y-4.192
X4.3343Y-4.3307
X6.4961Y-3.7795
X6.4961Y-3.8583
X6.4961Y-3.937
X6.4961Y-4.0157
X6.4961Y-4.0945
X4.6009Y-3.4934
X4.6914Y-3.4934
X3.1836Y-3.4934
X3.2741Y-3.4934
T6
X5.5118Y-4.0846
T7
X5.5118Y-3.7894
T8
X6.4961Y-4.3307
X6.4961Y-3.5433
X1.378Y-4.3307
X1.378Y-3.5433
T4
G00X1.3669Y-3.7175
M15
G01X1.3197Y-3.7175
M16
G05
G00X1.3669Y-4.1565
M15
G01X1.3197Y-4.1565
M16
G05
G00X1.548Y-3.7175
M15
G01X1.5008Y-3.7175
M16
G05
G00X1.548Y-4.1565
M15
G01X1.5008Y-4.1565
M16
G05
T0
M30
