M48
; DRILL file {KiCad (5.1.4)-1} date 2019/10/28 14:50:55
; FORMAT={-:-/ absolute / inch / decimal}
; #@! TF.CreationDate,2019-10-28T14:50:55+08:00
; #@! TF.GenerationSoftware,Kicad,Pcbnew,(5.1.4)-1
; #@! TF.FileFunction,Plated,1,2,PTH
FMAT,2
INCH
T1C0.0138
T2C0.0157
T3C0.0256
T4C0.0315
T5C0.1008
%
G90
G05
T1
X6.426Y-3.5433
X6.4465Y-3.5929
X1.3079Y-3.5433
X1.3283Y-3.4937
X1.3283Y-3.5929
X1.378Y-3.4732
X1.378Y-3.6134
X1.4276Y-3.4937
X1.4276Y-3.5929
X1.448Y-3.5433
X6.426Y-4.3307
X6.4465Y-4.2811
X6.4465Y-4.3803
X6.4961Y-4.2606
X6.4961Y-4.4008
X6.5457Y-4.2811
X6.5457Y-4.3803
X6.5661Y-4.3307
X6.4465Y-3.4937
X6.4961Y-3.4732
X6.4961Y-3.6134
X6.5457Y-3.4937
X6.5457Y-3.5929
X6.5661Y-3.5433
X1.3079Y-4.3307
X1.3283Y-4.2811
X1.3283Y-4.3803
X1.378Y-4.2606
X1.378Y-4.4008
X1.4276Y-4.2811
X1.4276Y-4.3803
X1.448Y-4.3307
T2
X1.6055Y-3.752
X1.7236Y-3.8299
X1.7354Y-3.9854
X1.737Y-3.5823
X1.8063Y-3.9039
X1.828Y-3.9854
X1.874Y-3.8201
X1.874Y-4.0291
X1.9193Y-3.5764
X1.9248Y-3.8339
X1.9795Y-3.8205
X1.9823Y-3.9713
X2.0736Y-3.8201
X2.0736Y-4.0409
X2.148Y-4.022
X2.174Y-3.8201
X2.237Y-4.1839
X2.248Y-3.5693
X2.4051Y-3.952
X2.4063Y-3.7531
X2.4693Y-3.8209
X2.5185Y-3.9949
X2.5189Y-3.8228
X2.561Y-3.5811
X2.6039Y-3.9039
X2.635Y-3.9823
X2.6689Y-3.8181
X2.6689Y-4.0303
X2.7146Y-3.5776
X2.7197Y-3.8335
X2.7783Y-3.8224
X2.7787Y-3.9717
X2.8689Y-3.8173
X2.8697Y-4.0413
X2.9441Y-4.022
X2.9689Y-3.8201
X3.037Y-4.1744
X3.0441Y-3.5201
X3.1961Y-3.9539
X3.2031Y-3.7531
X3.2646Y-3.8201
X3.3146Y-3.8232
X3.3264Y-3.9815
X3.3528Y-3.5831
X3.3969Y-3.9039
X3.424Y-3.9756
X3.4642Y-3.8236
X3.4642Y-4.022
X3.5138Y-3.8429
X3.5193Y-3.5787
X3.5728Y-3.8189
X3.585Y-3.9713
X3.6646Y-3.8224
X3.6646Y-4.0409
X3.7382Y-4.0201
X3.7646Y-3.8157
X3.8366Y-4.1874
X3.837Y-3.5201
X3.9949Y-3.9508
X3.9961Y-3.7535
X4.0598Y-3.8213
X4.1098Y-3.822
X4.1197Y-3.9831
X4.1488Y-3.5815
X4.1953Y-3.9039
X4.2287Y-3.9831
X4.2594Y-3.8197
X4.2598Y-4.0299
X4.3102Y-3.8394
X4.3173Y-3.5787
X4.3661Y-3.8197
X4.3787Y-3.9728
X4.4594Y-3.8197
X4.4598Y-4.0429
X4.5331Y-4.0236
X4.5594Y-3.8181
X4.6343Y-4.1835
X4.6366Y-3.5197
X4.7878Y-3.952
X4.7894Y-3.7492
X4.8551Y-3.8201
X4.9051Y-3.824
X4.9205Y-3.978
X4.9453Y-3.5843
X4.9874Y-3.9039
X5.024Y-3.9776
X5.0543Y-4.0161
X5.0551Y-3.8189
X5.1055Y-3.8394
X5.113Y-3.5776
X5.163Y-3.8197
X5.172Y-3.976
X5.2543Y-4.0469
X5.2547Y-3.8138
X5.3283Y-4.0327
X5.3543Y-3.8181
X5.4362Y-4.1858
X5.4366Y-3.5201
X5.5839Y-3.7484
X5.5839Y-3.7484
X5.6016Y-3.9531
X5.6504Y-3.8228
X5.7004Y-3.8283
X5.7004Y-3.8283
X5.7291Y-3.9705
X5.7291Y-3.9705
X5.737Y-3.587
X5.737Y-3.587
X5.7886Y-3.9039
X5.7886Y-3.9039
X5.8299Y-3.9717
X5.8299Y-3.9717
X5.85Y-3.8185
X5.85Y-3.8185
X5.85Y-4.0154
X5.85Y-4.0154
X5.9008Y-3.8323
X5.9008Y-3.8323
X5.9047Y-3.578
X5.9047Y-3.578
X5.95Y-3.8102
X5.95Y-3.8102
X5.9701Y-3.9677
X5.9701Y-3.9677
X6.05Y-3.8039
X6.05Y-3.8039
X6.05Y-4.039
X6.05Y-4.039
X6.1205Y-4.0327
X6.1502Y-3.8144
X6.1502Y-3.8144
X6.2197Y-4.1563
X6.2551Y-3.7543
T3
X5.587Y-3.6417
X5.587Y-4.2323
X5.687Y-3.6417
X5.687Y-4.2323
X5.787Y-3.6417
X5.787Y-4.2323
X5.887Y-3.6417
X5.887Y-4.2323
X5.987Y-3.6417
X5.987Y-4.2323
X6.087Y-3.6417
X6.087Y-4.2323
X6.187Y-3.6417
X6.187Y-4.2323
X6.287Y-3.6417
X6.287Y-4.2323
X2.387Y-3.6417
X2.387Y-4.2323
X2.487Y-3.6417
X2.487Y-4.2323
X2.587Y-3.6417
X2.587Y-4.2323
X2.687Y-3.6417
X2.687Y-4.2323
X2.787Y-3.6417
X2.787Y-4.2323
X2.887Y-3.6417
X2.887Y-4.2323
X2.987Y-3.6417
X2.987Y-4.2323
X3.087Y-3.6417
X3.087Y-4.2323
X1.587Y-3.6417
X1.587Y-4.2323
X1.687Y-3.6417
X1.687Y-4.2323
X1.787Y-3.6417
X1.787Y-4.2323
X1.887Y-3.6417
X1.887Y-4.2323
X1.987Y-3.6417
X1.987Y-4.2323
X2.087Y-3.6417
X2.087Y-4.2323
X2.187Y-3.6417
X2.187Y-4.2323
X2.287Y-3.6417
X2.287Y-4.2323
X3.987Y-3.6417
X3.987Y-4.2323
X4.087Y-3.6417
X4.087Y-4.2323
X4.187Y-3.6417
X4.187Y-4.2323
X4.287Y-3.6417
X4.287Y-4.2323
X4.387Y-3.6417
X4.387Y-4.2323
X4.487Y-3.6417
X4.487Y-4.2323
X4.587Y-3.6417
X4.587Y-4.2323
X4.687Y-3.6417
X4.687Y-4.2323
X4.787Y-3.6417
X4.787Y-4.2323
X4.887Y-3.6417
X4.887Y-4.2323
X4.987Y-3.6417
X4.987Y-4.2323
X5.087Y-3.6417
X5.087Y-4.2323
X5.187Y-3.6417
X5.187Y-4.2323
X5.287Y-3.6417
X5.287Y-4.2323
X5.387Y-3.6417
X5.387Y-4.2323
X5.487Y-3.6417
X5.487Y-4.2323
X3.187Y-3.6417
X3.187Y-4.2323
X3.287Y-3.6417
X3.287Y-4.2323
X3.387Y-3.6417
X3.387Y-4.2323
X3.487Y-3.6417
X3.487Y-4.2323
X3.587Y-3.6417
X3.587Y-4.2323
X3.687Y-3.6417
X3.687Y-4.2323
X3.787Y-3.6417
X3.787Y-4.2323
X3.887Y-3.6417
X3.887Y-4.2323
T4
X1.6689Y-3.9035
X6.4961Y-3.7795
X6.4961Y-3.8583
X6.4961Y-3.937
X6.4961Y-4.0157
X6.4961Y-4.0945
T5
X6.4961Y-3.5433
X1.378Y-4.3307
X1.378Y-3.5433
X6.4961Y-4.3307
T0
M30
